ISO-10303-21;
HEADER;
/* Generated by software containing ST-Developer
 * from STEP Tools, Inc. (www.steptools.com) 
 */
/* OPTION: using custom renumber hook */

FILE_DESCRIPTION(
/* description */ ('STEP AP242 Edition 2',
'CAx-IF Rec.Pracs.---Representation and Presentation of Product Manufa
cturing Information (PMI)---4.0---2014-10-13',
'CAx-IF Rec.Pracs.---3D Tessellated Geometry---0.4---2014-09-14','2;1',
'CAx-IF Rec.Pracs.---User Defined Attributes---1.5---2016-08-15'),
/* implementation_level */ '2;1');

FILE_NAME(
/* name */ 'Case - Case Top',
/* time_stamp */ '2026-08-07T15:29:33Z',
/* author */ (''),
/* organization */ (''),
/* preprocessor_version */ 'ST-DEVELOPER v20',
/* originating_system */ 'ONSHAPE BY PTC INC, 1.219',
/* authorisation */ '  ');

FILE_SCHEMA (('AP242_MANAGED_MODEL_BASED_3D_ENGINEERING_MIM_LF { 1 0 10303 442 3 1 4 }'));
ENDSEC;

DATA;
#10=SHAPE_REPRESENTATION_RELATIONSHIP('','',#237,#11);
#11=ADVANCED_BREP_SHAPE_REPRESENTATION('',(#235),#379);
#12=CYLINDRICAL_SURFACE('',#255,0.0017);
#13=CYLINDRICAL_SURFACE('',#256,0.0017);
#14=CYLINDRICAL_SURFACE('',#257,0.0017);
#15=CYLINDRICAL_SURFACE('',#258,0.0017);
#16=CIRCLE('',#243,0.0017);
#17=CIRCLE('',#244,0.0017);
#18=CIRCLE('',#246,0.0017);
#19=CIRCLE('',#247,0.0017);
#20=CIRCLE('',#250,0.0017);
#21=CIRCLE('',#251,0.0017);
#22=CIRCLE('',#253,0.0017);
#23=CIRCLE('',#254,0.0017);
#24=ORIENTED_EDGE('',*,*,#76,.T.);
#25=ORIENTED_EDGE('',*,*,#77,.F.);
#26=ORIENTED_EDGE('',*,*,#78,.F.);
#27=ORIENTED_EDGE('',*,*,#79,.T.);
#28=ORIENTED_EDGE('',*,*,#80,.F.);
#29=ORIENTED_EDGE('',*,*,#81,.T.);
#30=ORIENTED_EDGE('',*,*,#82,.F.);
#31=ORIENTED_EDGE('',*,*,#83,.F.);
#32=ORIENTED_EDGE('',*,*,#84,.T.);
#33=ORIENTED_EDGE('',*,*,#85,.F.);
#34=ORIENTED_EDGE('',*,*,#86,.T.);
#35=ORIENTED_EDGE('',*,*,#87,.T.);
#36=ORIENTED_EDGE('',*,*,#88,.F.);
#37=ORIENTED_EDGE('',*,*,#81,.F.);
#38=ORIENTED_EDGE('',*,*,#89,.T.);
#39=ORIENTED_EDGE('',*,*,#83,.T.);
#40=ORIENTED_EDGE('',*,*,#90,.T.);
#41=ORIENTED_EDGE('',*,*,#91,.T.);
#42=ORIENTED_EDGE('',*,*,#80,.T.);
#43=ORIENTED_EDGE('',*,*,#92,.F.);
#44=ORIENTED_EDGE('',*,*,#84,.F.);
#45=ORIENTED_EDGE('',*,*,#89,.F.);
#46=ORIENTED_EDGE('',*,*,#93,.T.);
#47=ORIENTED_EDGE('',*,*,#94,.T.);
#48=ORIENTED_EDGE('',*,*,#76,.F.);
#49=ORIENTED_EDGE('',*,*,#88,.T.);
#50=ORIENTED_EDGE('',*,*,#82,.T.);
#51=ORIENTED_EDGE('',*,*,#95,.T.);
#52=ORIENTED_EDGE('',*,*,#96,.T.);
#53=ORIENTED_EDGE('',*,*,#86,.F.);
#54=ORIENTED_EDGE('',*,*,#97,.F.);
#55=ORIENTED_EDGE('',*,*,#78,.T.);
#56=ORIENTED_EDGE('',*,*,#98,.T.);
#57=ORIENTED_EDGE('',*,*,#99,.T.);
#58=ORIENTED_EDGE('',*,*,#79,.F.);
#59=ORIENTED_EDGE('',*,*,#97,.T.);
#60=ORIENTED_EDGE('',*,*,#85,.T.);
#61=ORIENTED_EDGE('',*,*,#92,.T.);
#62=ORIENTED_EDGE('',*,*,#100,.T.);
#63=ORIENTED_EDGE('',*,*,#101,.T.);
#64=ORIENTED_EDGE('',*,*,#95,.F.);
#65=ORIENTED_EDGE('',*,*,#87,.F.);
#66=ORIENTED_EDGE('',*,*,#96,.F.);
#67=ORIENTED_EDGE('',*,*,#77,.T.);
#68=ORIENTED_EDGE('',*,*,#99,.F.);
#69=ORIENTED_EDGE('',*,*,#101,.F.);
#70=ORIENTED_EDGE('',*,*,#98,.F.);
#71=ORIENTED_EDGE('',*,*,#100,.F.);
#72=ORIENTED_EDGE('',*,*,#91,.F.);
#73=ORIENTED_EDGE('',*,*,#94,.F.);
#74=ORIENTED_EDGE('',*,*,#90,.F.);
#75=ORIENTED_EDGE('',*,*,#93,.F.);
#76=EDGE_CURVE('',#102,#103,#122,.T.);
#77=EDGE_CURVE('',#104,#103,#123,.T.);
#78=EDGE_CURVE('',#105,#104,#124,.T.);
#79=EDGE_CURVE('',#105,#106,#125,.T.);
#80=EDGE_CURVE('',#107,#106,#126,.T.);
#81=EDGE_CURVE('',#107,#102,#127,.T.);
#82=EDGE_CURVE('',#108,#109,#128,.T.);
#83=EDGE_CURVE('',#110,#108,#129,.T.);
#84=EDGE_CURVE('',#110,#111,#130,.T.);
#85=EDGE_CURVE('',#112,#111,#131,.T.);
#86=EDGE_CURVE('',#112,#113,#132,.T.);
#87=EDGE_CURVE('',#113,#109,#133,.T.);
#88=EDGE_CURVE('',#102,#108,#134,.T.);
#89=EDGE_CURVE('',#107,#110,#135,.T.);
#90=EDGE_CURVE('',#114,#114,#16,.F.);
#91=EDGE_CURVE('',#115,#115,#17,.F.);
#92=EDGE_CURVE('',#111,#106,#136,.T.);
#93=EDGE_CURVE('',#116,#116,#18,.T.);
#94=EDGE_CURVE('',#117,#117,#19,.T.);
#95=EDGE_CURVE('',#109,#103,#137,.T.);
#96=EDGE_CURVE('',#104,#113,#138,.T.);
#97=EDGE_CURVE('',#105,#112,#139,.T.);
#98=EDGE_CURVE('',#118,#118,#20,.F.);
#99=EDGE_CURVE('',#119,#119,#21,.F.);
#100=EDGE_CURVE('',#120,#120,#22,.T.);
#101=EDGE_CURVE('',#121,#121,#23,.T.);
#102=VERTEX_POINT('',#322);
#103=VERTEX_POINT('',#323);
#104=VERTEX_POINT('',#325);
#105=VERTEX_POINT('',#327);
#106=VERTEX_POINT('',#329);
#107=VERTEX_POINT('',#331);
#108=VERTEX_POINT('',#335);
#109=VERTEX_POINT('',#336);
#110=VERTEX_POINT('',#338);
#111=VERTEX_POINT('',#340);
#112=VERTEX_POINT('',#342);
#113=VERTEX_POINT('',#344);
#114=VERTEX_POINT('',#351);
#115=VERTEX_POINT('',#353);
#116=VERTEX_POINT('',#357);
#117=VERTEX_POINT('',#359);
#118=VERTEX_POINT('',#366);
#119=VERTEX_POINT('',#368);
#120=VERTEX_POINT('',#371);
#121=VERTEX_POINT('',#373);
#122=LINE('',#321,#140);
#123=LINE('',#324,#141);
#124=LINE('',#326,#142);
#125=LINE('',#328,#143);
#126=LINE('',#330,#144);
#127=LINE('',#332,#145);
#128=LINE('',#334,#146);
#129=LINE('',#337,#147);
#130=LINE('',#339,#148);
#131=LINE('',#341,#149);
#132=LINE('',#343,#150);
#133=LINE('',#345,#151);
#134=LINE('',#347,#152);
#135=LINE('',#348,#153);
#136=LINE('',#354,#154);
#137=LINE('',#360,#155);
#138=LINE('',#362,#156);
#139=LINE('',#363,#157);
#140=VECTOR('',#263,1.);
#141=VECTOR('',#264,1.);
#142=VECTOR('',#265,1.);
#143=VECTOR('',#266,1.);
#144=VECTOR('',#267,1.);
#145=VECTOR('',#268,1.);
#146=VECTOR('',#271,1.);
#147=VECTOR('',#272,1.);
#148=VECTOR('',#273,1.);
#149=VECTOR('',#274,1.);
#150=VECTOR('',#275,1.);
#151=VECTOR('',#276,1.);
#152=VECTOR('',#279,1.);
#153=VECTOR('',#280,1.);
#154=VECTOR('',#287,1.);
#155=VECTOR('',#294,1.);
#156=VECTOR('',#297,1.);
#157=VECTOR('',#298,1.);
#158=EDGE_LOOP('',(#24,#25,#26,#27,#28,#29));
#159=EDGE_LOOP('',(#30,#31,#32,#33,#34,#35));
#160=EDGE_LOOP('',(#36,#37,#38,#39));
#161=EDGE_LOOP('',(#40));
#162=EDGE_LOOP('',(#41));
#163=EDGE_LOOP('',(#42,#43,#44,#45));
#164=EDGE_LOOP('',(#46));
#165=EDGE_LOOP('',(#47));
#166=EDGE_LOOP('',(#48,#49,#50,#51));
#167=EDGE_LOOP('',(#52,#53,#54,#55));
#168=EDGE_LOOP('',(#56));
#169=EDGE_LOOP('',(#57));
#170=EDGE_LOOP('',(#58,#59,#60,#61));
#171=EDGE_LOOP('',(#62));
#172=EDGE_LOOP('',(#63));
#173=EDGE_LOOP('',(#64,#65,#66,#67));
#174=EDGE_LOOP('',(#68));
#175=EDGE_LOOP('',(#69));
#176=EDGE_LOOP('',(#70));
#177=EDGE_LOOP('',(#71));
#178=EDGE_LOOP('',(#72));
#179=EDGE_LOOP('',(#73));
#180=EDGE_LOOP('',(#74));
#181=EDGE_LOOP('',(#75));
#182=FACE_BOUND('',#158,.T.);
#183=FACE_BOUND('',#159,.T.);
#184=FACE_BOUND('',#160,.T.);
#185=FACE_BOUND('',#161,.T.);
#186=FACE_BOUND('',#162,.T.);
#187=FACE_BOUND('',#163,.T.);
#188=FACE_BOUND('',#164,.T.);
#189=FACE_BOUND('',#165,.T.);
#190=FACE_BOUND('',#166,.T.);
#191=FACE_BOUND('',#167,.T.);
#192=FACE_BOUND('',#168,.T.);
#193=FACE_BOUND('',#169,.T.);
#194=FACE_BOUND('',#170,.T.);
#195=FACE_BOUND('',#171,.T.);
#196=FACE_BOUND('',#172,.T.);
#197=FACE_BOUND('',#173,.T.);
#198=FACE_BOUND('',#174,.T.);
#199=FACE_BOUND('',#175,.T.);
#200=FACE_BOUND('',#176,.T.);
#201=FACE_BOUND('',#177,.T.);
#202=FACE_BOUND('',#178,.T.);
#203=FACE_BOUND('',#179,.T.);
#204=FACE_BOUND('',#180,.T.);
#205=FACE_BOUND('',#181,.T.);
#206=PLANE('',#239);
#207=PLANE('',#240);
#208=PLANE('',#241);
#209=PLANE('',#242);
#210=PLANE('',#245);
#211=PLANE('',#248);
#212=PLANE('',#249);
#213=PLANE('',#252);
#214=ADVANCED_FACE('',(#182),#206,.F.);
#215=ADVANCED_FACE('',(#183),#207,.T.);
#216=ADVANCED_FACE('',(#184),#208,.T.);
#217=ADVANCED_FACE('',(#185,#186,#187),#209,.T.);
#218=ADVANCED_FACE('',(#188,#189,#190),#210,.F.);
#219=ADVANCED_FACE('',(#191),#211,.F.);
#220=ADVANCED_FACE('',(#192,#193,#194),#212,.T.);
#221=ADVANCED_FACE('',(#195,#196,#197),#213,.F.);
#222=ADVANCED_FACE('',(#198,#199),#12,.F.);
#223=ADVANCED_FACE('',(#200,#201),#13,.F.);
#224=ADVANCED_FACE('',(#202,#203),#14,.F.);
#225=ADVANCED_FACE('',(#204,#205),#15,.F.);
#226=CLOSED_SHELL('',(#214,#215,#216,#217,#218,#219,#220,#221,#222,#223,
#224,#225));
#227=STYLED_ITEM('',(#228),#235);
#228=PRESENTATION_STYLE_ASSIGNMENT((#229));
#229=SURFACE_STYLE_USAGE(.BOTH.,#230);
#230=SURFACE_SIDE_STYLE('',(#231));
#231=SURFACE_STYLE_FILL_AREA(#232);
#232=FILL_AREA_STYLE('',(#233));
#233=FILL_AREA_STYLE_COLOUR('',#234);
#234=COLOUR_RGB('',0.498039215686275,0.498039215686275,0.498039215686275);
#235=MANIFOLD_SOLID_BREP('Case Top',#226);
#236=SHAPE_DEFINITION_REPRESENTATION(#384,#237);
#237=SHAPE_REPRESENTATION('Case Top',(#238),#379);
#238=AXIS2_PLACEMENT_3D('',#319,#259,#260);
#239=AXIS2_PLACEMENT_3D('',#320,#261,#262);
#240=AXIS2_PLACEMENT_3D('',#333,#269,#270);
#241=AXIS2_PLACEMENT_3D('',#346,#277,#278);
#242=AXIS2_PLACEMENT_3D('',#349,#281,#282);
#243=AXIS2_PLACEMENT_3D('',#350,#283,#284);
#244=AXIS2_PLACEMENT_3D('',#352,#285,#286);
#245=AXIS2_PLACEMENT_3D('',#355,#288,#289);
#246=AXIS2_PLACEMENT_3D('',#356,#290,#291);
#247=AXIS2_PLACEMENT_3D('',#358,#292,#293);
#248=AXIS2_PLACEMENT_3D('',#361,#295,#296);
#249=AXIS2_PLACEMENT_3D('',#364,#299,#300);
#250=AXIS2_PLACEMENT_3D('',#365,#301,#302);
#251=AXIS2_PLACEMENT_3D('',#367,#303,#304);
#252=AXIS2_PLACEMENT_3D('',#369,#305,#306);
#253=AXIS2_PLACEMENT_3D('',#370,#307,#308);
#254=AXIS2_PLACEMENT_3D('',#372,#309,#310);
#255=AXIS2_PLACEMENT_3D('',#374,#311,#312);
#256=AXIS2_PLACEMENT_3D('',#375,#313,#314);
#257=AXIS2_PLACEMENT_3D('',#376,#315,#316);
#258=AXIS2_PLACEMENT_3D('',#377,#317,#318);
#259=DIRECTION('',(0.,0.,1.));
#260=DIRECTION('',(1.,0.,0.));
#261=DIRECTION('',(-1.52503162723236E-16,-1.,0.));
#262=DIRECTION('',(1.,-1.52503162723236E-16,0.));
#263=DIRECTION('',(0.,0.,1.));
#264=DIRECTION('',(1.,0.,0.));
#265=DIRECTION('',(0.,0.,-1.));
#266=DIRECTION('',(1.,0.,0.));
#267=DIRECTION('',(0.,0.,1.));
#268=DIRECTION('',(-1.,1.52503162723236E-16,0.));
#269=DIRECTION('',(-1.52503162723236E-16,-1.,0.));
#270=DIRECTION('',(1.,-1.52503162723236E-16,0.));
#271=DIRECTION('',(0.,0.,1.));
#272=DIRECTION('',(-1.,1.52503162723236E-16,0.));
#273=DIRECTION('',(0.,0.,1.));
#274=DIRECTION('',(1.,0.,0.));
#275=DIRECTION('',(0.,0.,-1.));
#276=DIRECTION('',(1.,0.,0.));
#277=DIRECTION('',(0.,0.,-1.));
#278=DIRECTION('',(-1.,0.,0.));
#279=DIRECTION('',(-1.52503162723236E-16,-1.,0.));
#280=DIRECTION('',(-1.52503162723236E-16,-1.,0.));
#281=DIRECTION('',(1.,-1.52503162723236E-16,0.));
#282=DIRECTION('',(1.52503162723236E-16,1.,0.));
#283=DIRECTION('',(1.,-1.52503162723236E-16,0.));
#284=DIRECTION('',(1.52503162723236E-16,1.,0.));
#285=DIRECTION('',(1.,-1.52503162723236E-16,0.));
#286=DIRECTION('',(1.52503162723236E-16,1.,0.));
#287=DIRECTION('',(0.,1.,0.));
#288=DIRECTION('',(1.,-1.52503162723236E-16,0.));
#289=DIRECTION('',(1.52503162723236E-16,1.,0.));
#290=DIRECTION('',(1.,-1.52503162723236E-16,0.));
#291=DIRECTION('',(0.,0.,-1.));
#292=DIRECTION('',(1.,-1.52503162723236E-16,0.));
#293=DIRECTION('',(0.,0.,-1.));
#294=DIRECTION('',(0.,1.,0.));
#295=DIRECTION('',(1.,0.,0.));
#296=DIRECTION('',(0.,0.,-1.));
#297=DIRECTION('',(0.,-1.,0.));
#298=DIRECTION('',(0.,-1.,0.));
#299=DIRECTION('',(0.,0.,1.));
#300=DIRECTION('',(1.,0.,0.));
#301=DIRECTION('',(0.,0.,1.));
#302=DIRECTION('',(1.,0.,0.));
#303=DIRECTION('',(0.,0.,1.));
#304=DIRECTION('',(1.,0.,0.));
#305=DIRECTION('',(0.,0.,1.));
#306=DIRECTION('',(1.,0.,0.));
#307=DIRECTION('',(0.,-1.52503162723236E-16,1.));
#308=DIRECTION('',(0.,-1.,-1.52503162723236E-16));
#309=DIRECTION('',(0.,-1.52503162723236E-16,1.));
#310=DIRECTION('',(0.,-1.,-1.52503162723236E-16));
#311=DIRECTION('',(0.,-1.52503162723236E-16,1.));
#312=DIRECTION('',(0.,-1.,-1.52503162723236E-16));
#313=DIRECTION('',(0.,-1.52503162723236E-16,1.));
#314=DIRECTION('',(0.,-1.,-1.52503162723236E-16));
#315=DIRECTION('',(1.,-1.52503162723236E-16,0.));
#316=DIRECTION('',(0.,0.,-1.));
#317=DIRECTION('',(1.,-1.52503162723236E-16,0.));
#318=DIRECTION('',(0.,0.,-1.));
#319=CARTESIAN_POINT('',(0.,0.,0.));
#320=CARTESIAN_POINT('',(0.051,0.046,-0.006));
#321=CARTESIAN_POINT('',(0.049,0.046,-0.006));
#322=CARTESIAN_POINT('',(0.049,0.046,-0.006));
#323=CARTESIAN_POINT('',(0.049,0.046,0.0449024));
#324=CARTESIAN_POINT('',(0.0088828,0.046,0.0449024));
#325=CARTESIAN_POINT('',(-0.0332344,0.046,0.0449024));
#326=CARTESIAN_POINT('',(-0.0332344,0.046,0.0469024));
#327=CARTESIAN_POINT('',(-0.0332344,0.046,0.0469024));
#328=CARTESIAN_POINT('',(0.0088828,0.046,0.0469024));
#329=CARTESIAN_POINT('',(0.051,0.046,0.0469024));
#330=CARTESIAN_POINT('',(0.051,0.046,-0.006));
#331=CARTESIAN_POINT('',(0.051,0.046,-0.006));
#332=CARTESIAN_POINT('',(0.051,0.046,-0.006));
#333=CARTESIAN_POINT('',(0.051,-0.049,-0.006));
#334=CARTESIAN_POINT('',(0.049,-0.049,-0.006));
#335=CARTESIAN_POINT('',(0.049,-0.049,-0.006));
#336=CARTESIAN_POINT('',(0.049,-0.049,0.0449024));
#337=CARTESIAN_POINT('',(0.051,-0.049,-0.006));
#338=CARTESIAN_POINT('',(0.051,-0.049,-0.006));
#339=CARTESIAN_POINT('',(0.051,-0.049,-0.006));
#340=CARTESIAN_POINT('',(0.051,-0.049,0.0469024));
#341=CARTESIAN_POINT('',(0.0088828,-0.049,0.0469024));
#342=CARTESIAN_POINT('',(-0.0332344,-0.049,0.0469024));
#343=CARTESIAN_POINT('',(-0.0332344,-0.049,0.0469024));
#344=CARTESIAN_POINT('',(-0.0332344,-0.049,0.0449024));
#345=CARTESIAN_POINT('',(0.0088828,-0.049,0.0449024));
#346=CARTESIAN_POINT('',(0.051,-0.00149999999999999,-0.006));
#347=CARTESIAN_POINT('',(0.049,-0.00149999999999999,-0.006));
#348=CARTESIAN_POINT('',(0.051,-0.00149999999999999,-0.006));
#349=CARTESIAN_POINT('',(0.051,-0.00149999999999999,0.0194512));
#350=CARTESIAN_POINT('',(0.051,-0.04475,-0.00175));
#351=CARTESIAN_POINT('',(0.051,-0.04305,-0.00175));
#352=CARTESIAN_POINT('',(0.051,0.04175,-0.00175));
#353=CARTESIAN_POINT('',(0.051,0.04345,-0.00175));
#354=CARTESIAN_POINT('',(0.051,-0.049,0.0469024));
#355=CARTESIAN_POINT('',(0.049,-0.00149999999999999,0.0194512));
#356=CARTESIAN_POINT('',(0.049,-0.04475,-0.00175));
#357=CARTESIAN_POINT('',(0.049,-0.04475,-0.00345));
#358=CARTESIAN_POINT('',(0.049,0.04175,-0.00175));
#359=CARTESIAN_POINT('',(0.049,0.04175,-0.00345));
#360=CARTESIAN_POINT('',(0.049,-0.049,0.0449024));
#361=CARTESIAN_POINT('',(-0.0332344,-0.00149999999999999,0.0469024));
#362=CARTESIAN_POINT('',(-0.0332344,-0.00149999999999999,0.0449024));
#363=CARTESIAN_POINT('',(-0.0332344,-0.00149999999999999,0.0469024));
#364=CARTESIAN_POINT('',(0.0088828,-0.00149999999999999,0.0469024));
#365=CARTESIAN_POINT('',(-0.0287344,0.04175,0.0469024));
#366=CARTESIAN_POINT('',(-0.0270344,0.04175,0.0469024));
#367=CARTESIAN_POINT('',(-0.0287344,-0.04475,0.0469024));
#368=CARTESIAN_POINT('',(-0.0270344,-0.04475,0.0469024));
#369=CARTESIAN_POINT('',(0.0088828,-0.00149999999999999,0.0449024));
#370=CARTESIAN_POINT('',(-0.0287344,0.04175,0.0449024));
#371=CARTESIAN_POINT('',(-0.0287344,0.04005,0.0449024));
#372=CARTESIAN_POINT('',(-0.0287344,-0.04475,0.0449024));
#373=CARTESIAN_POINT('',(-0.0287344,-0.04645,0.0449024));
#374=CARTESIAN_POINT('',(-0.0287344,-0.04475,0.0449024));
#375=CARTESIAN_POINT('',(-0.0287344,0.04175,0.0449024));
#376=CARTESIAN_POINT('',(0.049,0.04175,-0.00175));
#377=CARTESIAN_POINT('',(0.049,-0.04475,-0.00175));
#378=MECHANICAL_DESIGN_GEOMETRIC_PRESENTATION_REPRESENTATION('',(#227),
#379);
#379=(
GEOMETRIC_REPRESENTATION_CONTEXT(3)
GLOBAL_UNCERTAINTY_ASSIGNED_CONTEXT((#380))
GLOBAL_UNIT_ASSIGNED_CONTEXT((#383,#382,#381))
REPRESENTATION_CONTEXT('Case Top','TOP_LEVEL_ASSEMBLY_PART')
);
#380=UNCERTAINTY_MEASURE_WITH_UNIT(LENGTH_MEASURE(1.E-8),#383,
'DISTANCE_ACCURACY_VALUE','Maximum Tolerance applied to model');
#381=(
NAMED_UNIT(*)
SI_UNIT($,.STERADIAN.)
SOLID_ANGLE_UNIT()
);
#382=(
NAMED_UNIT(*)
PLANE_ANGLE_UNIT()
SI_UNIT($,.RADIAN.)
);
#383=(
LENGTH_UNIT()
NAMED_UNIT(*)
SI_UNIT($,.METRE.)
);
#384=PRODUCT_DEFINITION_SHAPE('','',#385);
#385=PRODUCT_DEFINITION('','',#387,#386);
#386=PRODUCT_DEFINITION_CONTEXT('',#393,'design');
#387=PRODUCT_DEFINITION_FORMATION_WITH_SPECIFIED_SOURCE('','',#389,
 .NOT_KNOWN.);
#388=PRODUCT_RELATED_PRODUCT_CATEGORY('','',(#389));
#389=PRODUCT('Case Top','Case Top','Case Top',(#391));
#390=PRODUCT_CATEGORY('','');
#391=PRODUCT_CONTEXT('',#393,'mechanical');
#392=APPLICATION_PROTOCOL_DEFINITION('international standard',
'ap242_managed_model_based_3d_engineering',2020,#393);
#393=APPLICATION_CONTEXT('managed model based 3d engineering');
ENDSEC;
END-ISO-10303-21;
